<svg width="177" height="171" viewBox="0 0 177 171" fill="none" xmlns="http://www.w3.org/2000/svg">
<g id="Joinha">
<rect id="Rectangle 3" x="3.5" y="78.9092" width="49.576" height="88.2858" rx="7.5" stroke="black" stroke-width="7"/>
<path id="Vector 5" d="M84.8637 40.049L57.6924 89.1808V156.179C64.5709 161.184 66.9976 162.878 66.9976 162.878H77.4195H145.162C153.063 157.807 155.466 153.421 154.095 141.29C167.495 133.173 166.817 127.613 163.772 117.469C173.803 106.537 174.422 100.345 166.006 89.1808C172.894 79.0259 174.324 73.3997 158.561 63.8705H109.802L114.641 33.3492C111.58 23.4822 109.007 18.058 101.241 8.78334C95.8836 4.70843 92.7711 2.85386 84.8637 8.78334V40.049Z" stroke="black" stroke-width="10"/>
</g>
</svg>
