<?xml version="1.0" encoding="UTF-8"?>
<svg xmlns="http://www.w3.org/2000/svg" xmlns:xlink="http://www.w3.org/1999/xlink" width="60px" height="px" viewBox="0 0 60 60" version="1.1">
<g id="surface1">
<path style="fill-rule:nonzero;fill:rgb(23.921569%,23.921569%,23.921569%);fill-opacity:1;stroke-width:1;stroke-linecap:butt;stroke-linejoin:miter;stroke:rgb(23.921569%,23.921569%,23.921569%);stroke-opacity:1;stroke-miterlimit:4;" d="M 26.000781 59.499023 L 26.000781 67.499609 C 10.399414 64.301172 3.499414 50.501172 1.999023 44.000977 C 0.799609 39.598633 1.500391 32.168555 1.999023 29.001563 C 4.999805 8.499219 21.998242 3.499414 23.498633 2.502148 C 24.999023 1.500391 35.501758 0.498633 43.497852 2.502148 C 51.498438 4.501172 59.499023 11.5 65.001953 21.000977 C 69.399805 28.601758 67.832031 40.833984 66.497852 46 C 66.16543 47.500391 64.197852 52.100391 59.000391 58.501758 C 53.798438 64.898633 46.166211 67.167188 42.999219 67.499609 L 42.500586 50.501172 C 60.900586 45.699023 56.835156 31.000586 52.500195 24.500391 L 52.500195 14.999414 L 49.499414 15.502539 L 44.000977 18.498828 C 36.8 16.1 28.332227 17.501563 24.999023 18.498828 L 20.497852 15.502539 L 16.001172 14.999414 L 15.498047 24.001758 C 15.498047 24.001758 13.000391 26.000781 12.501758 31.000586 C 11.998633 36.000391 12.501758 38.502539 12.501758 38.502539 C 13.701172 46.898438 23 50.002539 27.501172 50.501172 L 26.499414 52.500195 L 26.000781 54.499219 C 26.000781 54.499219 19.500586 55.002344 19.001953 54.499219 C 18.498828 54.000586 14.999414 48.502148 14.002148 47.999023 C 13.000391 47.500391 10.498242 47.500391 9.999609 47.999023 C 9.500977 48.502148 9.999609 50.501172 9.999609 50.501172 L 12.501758 52.500195 C 12.501758 52.500195 13.499023 54.000586 14.500781 55.999609 C 15.498047 57.998633 18.498828 59.499023 19.001953 59.499023 Z M 26.000781 59.499023 " transform="matrix(0.869565,0,0,0.869565,0,0)"/>
</g>
</svg>
