<?xml version="1.0" encoding="UTF-8"?>
<svg xmlns="http://www.w3.org/2000/svg" xmlns:xlink="http://www.w3.org/1999/xlink" width="60px" height="px" viewBox="0 0 59 59" version="1.1">
<g id="surface1">
<path style="fill:none;stroke-width:2;stroke-linecap:butt;stroke-linejoin:miter;stroke:rgb(23.921569%,23.921569%,23.921569%);stroke-opacity:1;stroke-miterlimit:4;" d="M 68.998941 34.5 C 68.998941 52.988016 53.793035 67.999537 35 67.999537 C 16.206965 67.999537 1.001059 52.988016 1.001059 34.5 C 1.001059 16.011984 16.206965 1.000463 35 1.000463 C 53.793035 1.000463 68.998941 16.011984 68.998941 34.5 Z M 68.998941 34.5 " transform="matrix(0.842857,0,0,0.855072,0,0)"/>
<path style="fill:none;stroke-width:1;stroke-linecap:butt;stroke-linejoin:miter;stroke:rgb(23.921569%,23.921569%,23.921569%);stroke-opacity:1;stroke-miterlimit:4;" d="M 21.499603 16.998742 L 21.499603 25.500397 L 26.500265 25.500397 L 26.500265 16.500794 L 46.498279 16.500794 C 50.738877 16.299788 52.393406 19.068194 52.5 20.000132 L 52.5 45.50053 C 52.89857 49.100371 49.6683 51.000794 47.999868 51.498742 L 28.497749 51.498742 C 28.001854 51.66777 25.999735 51.53072 23.001192 51.498742 C 19.641155 51.466764 18.218353 48.63897 18.00053 47.501457 C 18.167373 39.333289 18.023702 23.001523 18.00053 21.000596 C 17.968088 18.186507 20.127781 16.194717 21.499603 16.998742 Z M 21.499603 16.998742 " transform="matrix(0.842857,0,0,0.855072,0,0)"/>
<path style="fill:none;stroke-width:1;stroke-linecap:butt;stroke-linejoin:miter;stroke:rgb(23.921569%,23.921569%,23.921569%);stroke-opacity:1;stroke-miterlimit:4;" d="M 24.002251 16.500794 L 24.002251 24.997881 " transform="matrix(0.842857,0,0,0.855072,0,0)"/>
<path style="fill:none;stroke-width:1;stroke-linecap:butt;stroke-linejoin:miter;stroke:rgb(23.921569%,23.921569%,23.921569%);stroke-opacity:1;stroke-miterlimit:4;" d="M 44.500794 34.002052 C 44.500794 39.246491 40.246292 43.499603 35 43.499603 C 29.753708 43.499603 25.499206 39.246491 25.499206 34.002052 C 25.499206 28.753046 29.753708 24.499934 35 24.499934 C 40.246292 24.499934 44.500794 28.753046 44.500794 34.002052 Z M 44.500794 34.002052 " transform="matrix(0.842857,0,0,0.855072,0,0)"/>
<path style="fill:none;stroke-width:1;stroke-linecap:butt;stroke-linejoin:miter;stroke:rgb(23.921569%,23.921569%,23.921569%);stroke-opacity:1;stroke-miterlimit:4;" d="M 42.498676 34.002052 C 42.498676 38.140956 39.143273 41.498676 35 41.498676 C 30.856727 41.498676 27.501324 38.140956 27.501324 34.002052 C 27.501324 29.858581 30.856727 26.500861 35 26.500861 C 39.143273 26.500861 42.498676 29.858581 42.498676 34.002052 Z M 42.498676 34.002052 " transform="matrix(0.842857,0,0,0.855072,0,0)"/>
<path style="fill:none;stroke-width:1;stroke-linecap:butt;stroke-linejoin:miter;stroke:rgb(23.921569%,23.921569%,23.921569%);stroke-opacity:1;stroke-miterlimit:4;" d="M 40.501192 34.002052 C 40.501192 37.035421 38.03562 39.497749 35 39.497749 C 31.96438 39.497749 29.498808 37.035421 29.498808 34.002052 C 29.498808 30.964115 31.96438 28.501788 35 28.501788 C 38.03562 28.501788 40.501192 30.964115 40.501192 34.002052 Z M 40.501192 34.002052 " transform="matrix(0.842857,0,0,0.855072,0,0)"/>
<path style="fill:none;stroke-width:1;stroke-linecap:butt;stroke-linejoin:miter;stroke:rgb(23.921569%,23.921569%,23.921569%);stroke-opacity:1;stroke-miterlimit:4;" d="M 18.00053 28.501788 L 27.000794 28.501788 " transform="matrix(0.842857,0,0,0.855072,0,0)"/>
<path style="fill:none;stroke-width:1;stroke-linecap:butt;stroke-linejoin:miter;stroke:rgb(23.921569%,23.921569%,23.921569%);stroke-opacity:1;stroke-miterlimit:4;" d="M 42.999206 28.501788 L 51.99947 28.501788 " transform="matrix(0.842857,0,0,0.855072,0,0)"/>
<path style="fill:none;stroke-width:1;stroke-linecap:butt;stroke-linejoin:miter;stroke:rgb(23.921569%,23.921569%,23.921569%);stroke-opacity:1;stroke-miterlimit:4;" d="M 43.499735 19.502185 L 48.500397 19.502185 L 48.500397 24.499934 L 43.499735 24.499934 Z M 43.499735 19.502185 " transform="matrix(0.842857,0,0,0.855072,0,0)"/>
</g>
</svg>
