<?xml version="1.0" encoding="UTF-8"?>
<svg xmlns="http://www.w3.org/2000/svg" xmlns:xlink="http://www.w3.org/1999/xlink" width="60px" height="px" viewBox="0 0 59 59" version="1.1">
<g id="surface1">
<path style="fill:none;stroke-width:2;stroke-linecap:butt;stroke-linejoin:miter;stroke:rgb(23.921569%,23.921569%,23.921569%);stroke-opacity:1;stroke-miterlimit:4;" d="M 68.998941 34.5 C 68.998941 52.988016 53.793035 67.999537 35 67.999537 C 16.206965 67.999537 1.001059 52.988016 1.001059 34.5 C 1.001059 16.011984 16.206965 1.000463 35 1.000463 C 53.793035 1.000463 68.998941 16.011984 68.998941 34.5 Z M 68.998941 34.5 " transform="matrix(0.842857,0,0,0.855072,0,0)"/>
<path style=" stroke:none;fill-rule:nonzero;fill:rgb(23.921569%,23.921569%,23.921569%);fill-opacity:1;" d="M 24.019531 24.371094 C 20.355469 22.484375 18.46875 20.933594 15.171875 17.957031 L 15.171875 23.515625 L 17.277344 26.507812 L 14.75 26.507812 L 14.75 29.5 L 19.386719 32.066406 L 19.386719 33.347656 L 17.277344 33.347656 C 18.890625 36.144531 20.058594 36.890625 22.757812 36.339844 L 22.757812 38.050781 L 18.121094 40.1875 L 13.90625 40.1875 L 18.121094 42.328125 C 24.277344 42.472656 25.566406 42.421875 27.8125 42.328125 C 34.746094 39.757812 37.765625 37.136719 41.300781 29.929688 C 41.355469 27.824219 41.441406 26.285156 41.722656 22.660156 C 42.644531 22.859375 43.214844 22.296875 44.25 20.949219 L 41.722656 20.523438 L 42.984375 18.382812 L 39.613281 19.238281 C 40.007812 18.476562 39.390625 18 37.507812 17.101562 C 37.8125 16.96875 37.355469 16.941406 33.714844 17.101562 C 32.972656 16.972656 32.628906 16.800781 28.65625 20.949219 L 28.65625 24.371094 Z M 24.019531 24.371094 "/>
</g>
</svg>
