<?xml version="1.0" encoding="UTF-8"?>
<svg xmlns="http://www.w3.org/2000/svg" xmlns:xlink="http://www.w3.org/1999/xlink" width="60px" height="px" viewBox="0 0 59 59" version="1.1">
<g id="surface1">
<path style="fill:none;stroke-width:2;stroke-linecap:butt;stroke-linejoin:miter;stroke:rgb(23.921569%,23.921569%,23.921569%);stroke-opacity:1;stroke-miterlimit:4;" d="M 68.998941 34.5 C 68.998941 52.988016 53.793035 67.999537 35 67.999537 C 16.206965 67.999537 1.001059 52.988016 1.001059 34.5 C 1.001059 16.011984 16.206965 1.000463 35 1.000463 C 53.793035 1.000463 68.998941 16.011984 68.998941 34.5 Z M 68.998941 34.5 " transform="matrix(0.842857,0,0,0.855072,0,0)"/>
<path style=" stroke:none;fill-rule:nonzero;fill:rgb(23.921569%,23.921569%,23.921569%);fill-opacity:1;" d="M 21.070312 18.8125 L 37.929688 18.8125 C 41.652344 18.8125 44.671875 21.875 44.671875 25.652344 L 44.671875 34.203125 C 44.671875 37.980469 41.652344 41.042969 37.929688 41.042969 L 21.070312 41.042969 C 17.347656 41.042969 14.328125 37.980469 14.328125 34.203125 L 14.328125 25.652344 C 14.328125 21.875 17.347656 18.8125 21.070312 18.8125 Z M 21.070312 18.8125 "/>
<path style=" stroke:none;fill-rule:nonzero;fill:rgb(85.098039%,85.098039%,85.098039%);fill-opacity:1;" d="M 33.714844 30.355469 L 25.496094 35.167969 L 25.496094 25.542969 Z M 33.714844 30.355469 "/>
</g>
</svg>
